<?xml version="1.0" encoding="UTF-8" standalone="no"?>
<!-- Created with Inkscape (http://www.inkscape.org/) -->

<svg
   width="70.000008mm"
   height="73.400032mm"
   viewBox="0 0 69.999999 73.400037"
   version="1.1"
   id="svg63"
   xmlns="http://www.w3.org/2000/svg"
   xmlns:svg="http://www.w3.org/2000/svg">
  <defs
     id="defs60" />
  <g
     id="layer1"
     transform="translate(-31.150799,-10.300455)">
    <path
       style="fill:#000000;fill-opacity:1;stroke:#000000;stroke-width:0.834155;stroke-miterlimit:4;stroke-dasharray:none;stroke-opacity:1"
       d="m 33.532289,47.369778 c 0.920437,0.40838 1.926099,0.741706 2.91004,1.008245 0.438521,0.118447 1.700194,0.546882 1.700194,0.546882 0,0 -0.09276,1.112517 -0.123627,1.511573 -0.05544,0.718928 0.211659,1.891253 0.584906,2.536148 0.646905,1.117991 1.883735,1.864345 2.887122,2.693516 1.151919,0.951846 2.189389,2.160921 2.782079,3.465755 0.57421,1.264445 0.37275,2.684696 0.09975,3.98538 -0.32592,1.552754 -0.69503,3.074987 -0.71337,4.658275 -0.0084,0.743757 0.15218,1.386616 0.47369,2.070348 0.09219,0.196175 0.56812,0.711144 0.52836,0.891289 -0.0588,0.264984 -0.75152,0.61903 -1.00226,0.737029 -0.84721,0.399588 -2.152219,1.015007 -2.025729,1.99479 0.231,1.788759 1.037539,3.481786 1.268259,5.27935 0.10507,0.819329 0.007,1.917132 0.76818,2.508744 0.91854,0.712194 2.74477,1.220968 3.94695,1.267567 0.5215,0.02016 1.220589,0.03507 1.475179,-0.463757 0.48482,-0.950824 -0.834329,-1.63352 -1.279319,-2.329145 -0.55167,-0.862309 -0.5327,-2.001496 -0.48685,-2.95024 3.163649,1.902354 5.983319,2.539907 9.486678,3.023747 4.546779,0.331184 9.893379,0.329364 13.752268,-0.48818 1.75112,-0.370993 2.685339,-1.016806 3.348799,-0.890162 0.38584,0.09225 0.62979,0.635082 0.70364,0.942529 0.08442,0.352478 0.23282,0.74067 0.18102,1.10194 -0.07273,0.50414 -0.35791,0.978236 -0.4039,1.485981 -0.0273,0.305375 -0.0098,0.999985 0.35616,1.152136 1.09823,0.456008 2.31525,-0.153152 3.36343,-0.380939 1.963081,-0.426482 3.97628,-0.444612 5.93642,-0.922327 0.76888,-0.187355 2.13661,-0.538825 2.32225,-1.349866 0.14266,-0.622139 -1.015,-0.623175 -1.44921,-0.621089 -0.84798,0.0035 -1.65116,0.260337 -2.50264,0.06405 -0.52668,-0.12145 -0.92596,-0.449267 -1.396779,-0.666148 -0.37079,-0.170695 -1.05056,-0.389228 -1.28331,-0.711676 -0.13265,-0.183729 0.0273,-0.459613 0.0658,-0.653184 0.07217,-0.366436 0.0672,-0.735994 -0.09079,-1.086924 -0.18795,-0.417704 -0.489442,-0.89285 -0.821802,-1.232378 -0.187389,-0.192024 -0.487689,-0.270697 -0.582539,-0.528451 -0.26656,-0.725137 -0.16884,-1.622628 -0.31836,-2.379846 -0.29512,-1.494787 -0.74613,-2.983882 -0.8631,-4.502994 -0.0763,-0.990647 -0.16268,-1.847517 -0.1799,-2.846718 -0.0098,-0.554476 0.1582,-1.210642 0.21189,-1.604532 0.07392,-0.803278 0.31255,-1.635039 0.0427,-2.432647 -0.12159,-0.35763 -0.60816,-0.57554 -0.67865,-0.931651 -0.0413,-0.209111 0.20839,-0.429072 0.28112,-0.62111 0.09023,-0.23653 0.007,-0.49014 -0.0651,-0.724619 -0.73626,-2.471433 -1.94621,-4.838371 -2.74533,-7.297932 -0.22869,-0.703913 -0.67508,-1.491161 -0.71295,-2.225629 0.83811,-0.02786 1.61798,-0.22512 2.4444,-0.339514 2.50845,-0.347823 4.941861,-0.830207 7.33334,-1.624714 1.2187,-0.405258 2.35361,-0.970458 3.55019,-1.427488 1.527819,-0.583849 3.029319,-1.223572 4.539639,-1.855035 0.4802,-0.200795 1.04993,-0.246358 1.50801,-0.474614 1.567929,-0.782075 2.840179,-2.046009 4.428479,-2.767023 1.2432,3.296503 0.45976,6.917007 -0.6146,10.144679 -0.89047,2.67437 -1.83155,5.183611 -3.808629,7.401449 -1.52138,1.70648 -2.93566,3.677981 -4.94711,4.960556 -0.719949,0.436562 -1.320969,0.391783 -1.804179,0.600383 -0.17052,0.07708 -0.52612,0.219968 -0.49644,0.433223 0.0371,0.269647 0.65765,0.153321 0.84567,0.126287 0.80255,-0.11711 1.541679,-0.504651 2.201709,-0.90888 1.01213,-0.620067 1.71927,-1.557948 2.52938,-2.364852 1.27169,-1.267049 2.516639,-2.436784 3.550819,-3.881891 0.81718,-1.141259 1.48771,-2.569931 1.95328,-3.859233 1.22661,-3.92492 2.28466,-6.331611 1.92829,-9.856453 -0.0693,-0.557459 -0.50883,-2.80511 -0.43897,-3.364591 0.0329,-0.266056 0.3381,-0.437892 0.5558,-0.587468 0.58254,-0.400092 1.032429,-0.819847 1.566184,-1.260329 0.26131,-0.215306 0.71757,-0.413553 0.6111,-0.791903 -0.12698,-0.450289 -0.67984,-0.701848 -1.071495,-0.945616 -1.070299,-0.665098 -3.362239,-1.961645 -3.362239,-1.961645 0,0 -1.12812,-2.532949 -2.08012,-3.616318 -0.893339,-1.03999 -1.292549,-1.467809 -2.894289,-2.893057 -1.60174,-1.425242 -3.76544,-3.175739 -5.287519,-4.212782 -1.52215,-1.037057 -2.21221,-1.529017 -3.61648,-2.256505 -1.414839,-0.777357 -3.187731,-1.492218 -4.64275,-2.186149 -0.56756,-0.266329 -0.93177,-0.340466 -1.33861,-0.507696 -0.50288,-0.219926 -0.75089,-0.334565 -1.27407,-0.537768 -0.33698,-0.130963 -1.25139,-0.474943 -1.25139,-0.474943 0,0 -0.73962,-0.968191 -0.7,-1.266209 0.0462,-0.344981 0.32004,-0.602111 0.31423,-0.983415 -0.007,-0.526274 -0.46326,-1.047851 -0.43589,-1.550675 0.0182,-0.331723 0.57673,-0.51345 0.65065,-0.881972 0.26019,-1.292921 -1.348479,-1.83799 -2.425219,-2.198028 -2.50901,-0.838845 -6.443359,-0.960329 -8.240049,1.162861 -0.28455,0.336532 -0.23744,0.789579 -0.48825,1.138683 -0.36785,0.511322 -0.93877,0.871101 -1.2985,1.402093 -0.14966,0.22043 -0.27167,0.941136 -0.27167,0.941136 0,0 -2.226979,0.387205 -3.320449,0.652805 -1.24033,0.301273 -2.47527,0.658056 -3.666669,1.064987 -1.14359,0.390565 -2.20654,0.928445 -3.31737,1.378748 -0.81991,0.332381 -1.6926,0.512925 -2.502639,0.873159 -2.17623,0.967785 -4.31557,2.287936 -6.169309,3.687081 -1.097187,0.828184 -2.008944,1.804103 -3.00174,2.723791 -1.0507,0.973385 -2.187115,1.93382 -3.031727,3.062576 -0.884471,1.18202 -1.699866,2.476943 -2.200807,3.830127 -0.413917,1.118222 -0.51331,2.304294 -0.919387,3.412954 -0.190953,0.521724 -1.594236,0.355068 -1.273531,1.141798 0.441742,1.083285 1.419201,2.271157 2.470377,2.958507 0.398391,0.260855 0.939169,0.430619 1.380148,0.637154 0.145488,0.06839 0.457422,0.171416 0.487095,0.338499 0.04151,0.23394 -0.814968,0.730821 -1.010016,0.866957 -1.056692,0.740117 -1.999305,1.439914 -2.678025,2.496809 -0.271698,0.422884 -0.418376,1.520078 -0.418376,1.520078 0,0 1.085315,0.524397 1.698753,0.796123 z M 72.813608,13.427099 c -0.165339,0.312312 -0.757819,0.535234 -0.698459,0.933674 0.0798,0.536571 0.50463,0.98791 0.52031,1.552754 0.0119,0.406707 -0.44926,0.762138 -0.3416,1.138682 0.15715,0.550921 0.972509,1.149813 0.920149,1.708035 -0.0336,0.357343 -0.456259,0.622552 -0.606479,0.940443 -0.10871,0.229817 0.0294,0.480018 -0.007,0.715827 -0.0329,0.219296 -0.23156,0.360346 -0.28098,0.569345 -0.10178,0.427574 0.45045,0.941843 0.13727,1.383039 -0.14378,0.202383 -0.51331,0.168713 -0.74613,0.167635 -0.68733,-0.0028 -1.48176,-0.350972 -2.16272,-0.191351 -0.70595,0.16548 -0.50344,1.029279 -0.61054,1.487338 -0.09079,0.389018 -0.31542,0.790769 -0.33754,1.190413 -0.0175,0.317884 0.32704,0.426895 0.60816,0.522074 0.69552,0.235242 1.40616,0.444661 2.09524,0.696843 1.14016,0.417319 1.4224,1.771588 1.33861,2.714788 -1.64822,0 -3.20397,0.206633 -4.83063,0.353584 -0.34167,0.03087 -1.644789,0.0049 -1.360729,0.618023 0.0693,0.149317 0.26999,0.178626 0.429449,0.153986 0.5285,-0.08158 1.03019,-0.214837 1.5715,-0.250341 1.13547,-0.07441 2.28844,-0.244972 3.43378,-0.244923 1.023189,4.9e-5 2.053939,0.09409 3.084619,0.09409 3.80464,0 7.78841,0.593978 11.40734,1.622313 0.83055,0.236026 1.572619,0.62027 2.380979,0.879018 2.28788,0.732326 4.46285,1.570926 6.424179,2.906392 1.07149,0.729792 2.34024,1.201837 3.47515,1.841042 0.28875,0.162988 1.030189,0.497399 1.076179,0.829171 0.0679,0.482902 -1.119789,1.106595 -1.482949,1.3685 -1.64423,1.187837 -3.2837,2.515981 -5.122249,3.463151 -1.25888,0.649068 -2.60624,1.051736 -3.89949,1.624693 -1.83848,0.814695 -3.706779,1.479772 -5.587189,2.213204 -1.55512,0.606605 -3.180729,1.240658 -4.8307,1.632455 -1.65109,0.392329 -3.4874,0.495852 -5.17979,0.676494 -1.481829,0.158487 -2.928099,0.249473 -4.423299,0.249473 -0.65765,0 -1.38635,0.114947 -1.97883,-0.207032 0.67865,-0.535192 0.07511,-0.916643 -0.3346,-1.350384 -0.822429,-0.871093 -2.573059,-1.103486 -3.051509,-2.220959 -0.27643,-0.644924 -0.16065,-1.34883 -0.23219,-2.018576 -0.12348,-1.153173 -0.27181,-2.409365 -0.58142,-3.534572 -0.33467,-1.216866 -1.1361,-2.406775 -1.03306,-3.711624 0.09373,-1.188362 1.17159,-2.195857 1.1669,-3.379102 -0.007,-1.205659 0.22463,-2.393244 0.16415,-3.608283 -0.0168,-0.344617 -0.09492,-1.096157 -0.52087,-1.233112 -0.21945,-0.07053 -0.33061,0.140966 -0.33348,0.30149 -0.0098,0.512253 0.1001,1.034774 0.1001,1.552732 0,1.136604 0.0238,2.299213 -0.2765,3.416056 -0.28924,1.075445 -0.97251,2.050138 -1.15934,3.157251 -0.15015,0.888713 0.50988,1.705459 0.82124,2.493225 0.21357,0.538293 0.22288,1.094681 0.34216,1.647989 0.15316,0.713222 0.43421,1.449741 0.51863,2.173324 0.10759,0.925456 -0.25144,2.19457 0.23338,3.053757 0.51394,0.911988 1.7227,1.16508 2.54688,1.812061 0.21476,0.168714 0.83748,0.490679 0.76237,0.810537 -0.0329,0.138635 -0.29799,0.115444 -0.41321,0.111776 -0.29568,-0.0083 -0.89159,-0.173404 -1.14709,-0.007 -0.24213,0.158487 -0.1001,0.491715 -0.0119,0.688919 0.19551,0.435274 0.79786,1.03621 0.66283,1.544984 -0.07735,0.290885 -0.88116,0.152152 -1.13372,0.167636 -0.48769,0.02954 -0.85666,0.304325 -1.28562,0.347802 -0.34167,0.03472 -0.69146,-0.110439 -1.04237,-0.08909 -0.31199,0.01904 -0.68446,0.180628 -0.9702,0.0035 -0.852669,-0.52948 -0.538929,-1.779463 -0.543059,-2.54394 -0.0098,-1.973019 -0.13377,-3.987976 -0.94108,-5.848688 -0.89859,-2.071894 -2.16566,-4.079081 -2.52588,-6.314524 -0.16422,-1.018605 0.30786,-2.016643 0.1239,-3.053749 -0.17283,-0.975548 -0.60641,-1.895089 -0.71351,-2.898483 -0.1764,-1.647541 0.3626,-3.484872 1.50794,-4.791408 0.40278,-0.46018 0.95515,-0.911946 1.61742,-1.037148 0.58492,-0.110768 1.207639,0.01169 1.804249,-0.09526 1.37529,-0.244594 2.50376,-0.854889 3.07237,-2.0471 0.34573,-0.724003 -0.0301,-1.536717 -0.44058,-2.173871 -0.72863,-1.131543 -1.95027,-2.214065 -2.14935,-3.57133 -0.17689,-1.207212 0.72401,-1.773666 1.46027,-2.649212 0.46445,-0.551901 0.43358,-1.148252 1.08374,-1.629873 1.60398,-1.188481 4.317879,-1.066891 6.169239,-0.493255 0.73913,0.229026 1.51053,0.457674 2.15341,0.838621 0.230859,0.136794 0.238559,0.587594 0.112279,0.826049 z M 38.706947,27.766394 c 1.204819,-1.155805 2.330881,-2.415196 3.671787,-3.452855 1.782129,-1.379021 3.837049,-2.660874 5.936489,-3.624669 1.321039,-0.606452 2.723839,-1.068137 4.074069,-1.602909 2.07074,-0.820211 4.114179,-1.418746 6.285649,-1.966818 0.518,-0.130746 1.04643,-0.214235 1.57143,-0.319347 0.21007,-0.04207 0.838529,-0.208544 0.838529,-0.208544 0,0 0.15897,0.681926 0.24283,0.875147 0.19033,0.440104 0.4627,0.839006 0.73451,1.242206 0.38234,0.566755 0.74956,1.141273 1.13197,1.708035 0.75719,1.122282 0.42315,2.496157 -1.02725,3.056969 -0.76181,0.294623 -1.648779,0.181671 -2.444399,0.27188 -1.01794,0.115444 -1.83449,0.634417 -2.46659,1.32944 -0.70882,0.779429 -1.31474,1.899065 -1.42359,2.899253 -0.0574,0.520345 -0.19607,1.033724 -0.25137,1.551983 -0.0182,0.168525 0.0693,0.44289 -0.09198,0.569961 -0.44695,0.3514 -1.654589,0.365477 -2.226139,0.420231 -1.4588,0.139965 -2.91403,0.461832 -4.34903,0.760494 -3.625159,0.754425 -7.083578,1.940148 -10.545729,3.106117 -1.450295,0.488305 -3.535517,1.727732 -4.607819,1.831976 0.92414,-4.814613 2.580403,-6.178451 4.946668,-8.44855 z m 56.692579,6.573314 c -0.525,-0.06272 -1.09998,-0.533722 -1.57143,-0.760389 -1.067359,-0.51338 -2.158029,-0.970361 -3.259199,-1.421973 -1.14107,-0.38997 -1.7094,-0.624386 -3.02645,-1.05756 -1.317049,-0.433188 -3.012659,-0.933674 -4.481469,-1.176938 -1.807679,-0.276143 -3.638109,-0.513751 -5.47085,-0.727776 -0.70245,-0.08192 -1.49751,-0.143143 -2.21158,-0.115115 -0.48195,0.01883 -1.89336,-0.114107 -1.89336,-0.114107 0,0 0.07924,-0.790523 0.0189,-1.044154 -0.16583,-0.692769 -0.58786,-1.412593 -1.154159,-1.912778 -0.45164,-0.398699 -1.38341,-0.552895 -1.97645,-0.76349 -0.23282,-0.08258 -0.62216,-0.183029 -0.75432,-0.389081 -0.13965,-0.218323 -0.0462,-0.761201 -0.0609,-1.023568 l 0.29281,-0.796376 c 0.36533,-7e-4 0.55335,-0.05453 0.92939,0.02002 0.88466,0.06573 2.757019,0.190736 2.534629,-1.086931 -0.0364,-0.210861 -0.16177,-0.381353 -0.26481,-0.569352 0.30786,-0.511868 0.38794,-0.679231 0.46837,-0.944657 0.09121,-0.30107 -0.0364,-0.727881 0.0168,-0.94493 0.07588,-0.313936 0.42875,-0.787521 0.42875,-0.787521 0,0 1.52446,0.575974 1.99703,0.773437 0.62566,0.261485 1.33336,0.441861 1.92066,0.764267 2.145011,1.088976 3.254861,1.46118 4.91904,2.501799 0.43827,0.279181 1.60986,1.009449 2.0237,1.313851 1.40609,1.034964 2.740079,2.052085 4.062379,3.150553 2.55157,2.119459 5.105939,4.208945 6.513219,7.112867 M 35.5866,42.972533 c 0.377363,-0.249991 1.538193,-0.91042 1.549547,-1.364874 0.01337,-0.565705 -0.886703,-0.548639 -1.275133,-0.710129 -1.166109,-0.484966 -2.122967,-1.162475 -2.854103,-2.106565 -0.182161,-0.235494 -0.666981,-0.587986 -0.548772,-0.914053 0.102431,-0.28259 0.79933,-0.519141 1.074857,-0.650083 0.989009,-0.469973 1.96462,-0.952357 2.96823,-1.399027 4.350227,-1.934162 9.040737,-3.339685 13.793526,-4.198767 1.31824,-0.238231 2.62955,-0.484337 3.95766,-0.662361 0.33523,-0.04487 0.931839,-0.369131 1.255379,-0.158326 0.27706,0.180817 0.37716,0.913297 0.47439,1.202208 0.27349,0.810173 0.55349,1.681589 0.47663,2.53617 -0.0469,0.522241 -0.33754,1.016518 -0.31255,1.552739 0.0217,0.445634 0.22176,0.871115 0.34979,1.293978 0.40565,1.344693 0.98595,2.607598 1.61448,3.881891 0.81424,1.65109 1.31418,3.177958 1.50626,4.96881 0.08792,0.822436 0.10192,1.613303 0.0504,2.432639 -0.0119,0.19152 0.0637,0.755685 -0.09611,0.880418 -0.28987,0.22617 -1.21233,0.211694 -1.59411,0.258272 -0.43708,0.0532 -0.91028,0.217896 -1.33861,0.239127 -0.98126,0.04851 -1.98289,0.01666 -2.968279,0.07591 -3.52695,-0.0672 -6.785939,-0.02338 -9.952249,-0.573986 -1.739989,-0.314174 -3.471453,-0.826077 -5.17988,-1.287769 -1.312759,-0.355047 -2.624551,-0.734454 -3.899461,-1.17957 -0.676277,-0.236544 -1.307929,-0.696142 -2.037014,-0.79347 0.07024,-1.36227 1.873557,-2.588432 2.984821,-3.323383 z m 26.81388,-3.042878 -0.0581,0.05187 0.0581,-0.05187 m -9.586218,22.439861 c -1.44053,1.61749 -2.7076,2.965164 -3.97621,4.62982 -0.658489,0.856583 -1.414909,1.599318 -2.278079,2.293914 -0.36813,0.296583 -0.75516,0.681163 -1.21226,0.863338 -1.11377,-1.393854 -0.95466,-2.932636 -0.71477,-4.554746 0.31913,-2.15833 0.98154,-4.353922 0.39319,-6.521577 -0.75292,-2.773728 -4.09747,-3.955881 -5.609764,-6.263277 -0.737982,-1.126257 -0.529508,-2.459568 -0.470715,-3.674355 1.588699,0 3.04976,0.784679 4.597879,1.012424 3.11332,0.222264 6.484239,0.633633 9.312029,0.64386 1.11461,3.92e-4 2.208149,-0.09059 3.317509,-0.103607 0.27587,-0.0035 1.04405,0.01001 1.04405,0.01001 0,0 0,1.097803 0,1.489103 0,1.721985 -0.32767,3.551148 -1.30018,5.072332 -0.35854,0.56056 -0.79506,1.10607 -1.17509,1.656255 -0.224699,0.325052 -0.527869,0.732396 -0.416149,1.13869 0.24094,0.876806 1.504089,0.769937 2.735809,1.61329 -1.81678,-0.215579 -2.754289,-0.816326 -4.250749,0.692573 z m 23.567176,4.733315 c -0.07329,0.556409 0,1.102976 -0.0133,1.656263 -0.007,0.299173 0.12159,0.540379 0.16583,0.828142 0.29393,1.924887 1.14891,3.987472 0.87654,5.949117 -0.0294,0.213773 -0.26894,0.230342 -0.46039,0.287245 -0.46914,0.139804 -0.93184,0.305914 -1.39685,0.457044 -0.16065,0.05222 -0.44058,0.196679 -0.60466,0.09259 -0.29624,-0.188398 -0.37247,-0.764456 -0.54131,-1.040858 -0.62678,-1.025836 -1.2117,-1.996309 -1.644089,-3.105487 -0.18333,-0.468944 -0.24507,-1.184253 -0.64379,-1.55276 0.007,-0.546581 -0.3899,-1.18062 -0.55699,-1.708049 -0.20951,-0.661472 -0.20195,-1.313627 -0.32179,-1.975617 -0.16534,-0.907319 -0.44408,-1.991157 -0.0448,-2.885007 0.25312,-0.566251 1.18552,-0.928557 1.654029,-1.350377 0.14196,-0.127799 0.50225,-0.443569 0.28112,-0.633521 -0.19558,-0.168182 -0.949829,0.187348 -1.186149,0.259301 -0.98994,0.302281 -1.96658,0.682682 -2.96821,0.95648 -0.32648,0.08892 -0.83867,0.09309 -1.05693,-0.173383 -0.55468,-0.677544 -0.75894,-1.635571 -1.07842,-2.427474 -0.118789,-0.293489 -0.389339,-0.603526 -0.348669,-0.929593 0.0623,-0.501522 0.618659,-1.025331 0.811299,-1.50306 0.19152,-0.473578 0.41384,-0.850409 0.53956,-1.345722 0.0532,-0.208607 0.22407,-0.495852 -0.09142,-0.618002 -0.21301,-0.08275 -0.49819,0.153818 -0.5803,0.310569 -0.19439,0.373681 -0.23625,0.81207 -0.41433,1.196132 -0.163519,0.35301 -0.458009,0.685265 -0.458009,1.078125 l -0.65772,1.088997 -1.62673,1.861244 -0.3934,1.116934 -0.80143,0.470491 c 0,0 -1.11538,1.124431 -1.84149,1.474598 -0.310309,0.149646 -1.023119,0.242739 -1.023119,0.242739 l -1.33868,0.525357 c -0.84595,0.448588 -2.08992,1.14373 -2.91004,1.438353 -0.9184,0.323498 -1.761689,0.877835 -2.560809,1.386112 -0.99358,0.631967 -2.05086,1.315167 -2.90486,2.094659 -0.61649,0.56261 -1.06099,1.198196 -1.60643,1.804816 -1.207359,1.342628 -2.212349,2.602432 -2.239719,4.404134 -0.0203,1.326044 0.20321,2.691436 1.13484,3.778375 0.18011,0.210119 0.94444,0.844158 0.57582,1.141777 -0.23996,0.193592 -0.78904,0.09943 -1.07065,0.04851 -0.91994,-0.165662 -2.10945,-0.458612 -2.77368,-1.086939 -0.45031,-0.425985 -0.45367,-1.458037 -0.48559,-2.018597 -0.07091,-1.245811 -0.55223,-2.626735 -0.91378,-3.828054 -0.14252,-0.47306 -0.536339,-1.274294 -0.331729,-1.759779 0.220499,-0.523796 1.196229,-0.878339 1.711079,-1.12161 0.60578,-0.286209 1.25482,-0.814674 1.72921,-1.252565 0.85134,-0.785701 1.84016,-1.441454 2.619889,-2.290813 0.97524,-1.062614 1.77821,-2.268588 2.70368,-3.368442 0.52577,-0.624742 1.07674,-1.209592 1.6331,-1.811529 0.39228,-0.423934 0.777,-0.938392 1.32468,-1.221521 0.409149,-0.211708 1.019689,-0.130459 1.454949,-0.03101 1.02032,0.232407 2.03476,0.899059 3.08469,0.92078 0.7665,0.01666 1.38572,0.122619 1.68777,-0.591059 -1.34617,-0.464268 -2.63935,-0.942018 -3.89942,-1.582777 -0.3486,-0.177002 -1.06099,-0.385609 -1.26175,-0.699776 -0.30968,-0.484974 0.69258,-1.574481 0.97251,-1.99943 0.90328,-1.369529 1.73964,-3.026828 1.73964,-4.672241 0,-0.725654 0.11172,-1.394392 0.19264,-2.122084 0.0245,-0.217406 0.13727,-0.775369 0.13727,-0.775369 0,0 0.34629,-0.08392 0.48944,-0.09576 0.23919,-0.02016 0.58555,-0.05138 0.80262,0.05936 0.44814,0.228788 0.59017,0.83902 1.122659,1.027418 0.54012,0.190988 1.03775,-0.129458 1.56681,-0.108773 0.30492,0.01001 0.52556,0.239631 0.8148,0.257747 0.30436,0.01904 0.51793,-0.304325 0.8148,-0.352989 0.90153,-0.148477 2.16916,0.118951 2.21858,-1.047074 0.0084,-0.193067 -0.0259,-0.380436 -0.0651,-0.569331 0.56455,-0.222054 1.095359,-0.09259 1.687839,-0.05656 0.88172,0.0539 1.98408,0.128457 2.8518,-0.02184 0.35735,-0.06209 1.41834,-0.169799 1.70877,0.0574 0.26075,0.204449 0.39928,0.665091 0.494689,0.952357 0.24388,0.738066 0.45402,1.490118 0.65884,2.225614 0.45283,1.626233 1.20302,3.166583 1.78444,4.761764 0.19964,0.548135 0.52381,1.084356 0.62391,1.656276 0.0931,0.531566 -0.54705,0.890764 -0.48132,1.345729 0.0616,0.427014 0.82355,0.512393 0.95508,0.933723 0.34685,1.110732 0.0448,2.581712 -0.0189,3.724538 -0.0679,0.845775 0.10325,1.153621 -0.0084,1.863309 z m -5.828199,0.517608 c 0.13447,0.66094 0.18914,1.308972 0.38003,1.966811 0.48132,1.661449 1.36367,3.272702 2.082989,4.8653 0.35098,0.777938 0.91259,1.409905 0.94402,2.277366 0.0098,0.289862 0.16821,0.51396 -0.10311,0.753612 -0.53074,0.468923 -1.335109,0.714777 -2.028249,0.919744 -1.26588,0.375249 -2.4549,0.655256 -3.78308,0.768096 -4.882429,0.415107 -10.028548,0.604541 -14.782947,-0.71064 -1.63471,-0.452375 -3.17548,-0.879907 -4.59781,-1.768066 -0.307929,-0.192038 -1.187409,-0.661479 -1.255939,-1.005165 -0.07105,-0.357112 0.22386,-0.923377 0.39732,-1.234947 0.56245,-1.009302 1.454109,-1.968386 2.308179,-2.794953 1.24964,-1.209095 2.69199,-2.381434 4.25411,-3.278904 1.523059,-0.875238 3.230709,-1.589 4.830629,-2.350873 0.57267,-0.272762 1.16865,-0.324016 1.746009,-0.547078 0.54243,-0.209622 1.08661,-0.56987 1.57024,-0.874222 0.28637,-0.180103 0.39984,-0.461664 0.71645,-0.627823 0.30093,-0.158487 0.63616,-0.02436 0.83811,-0.344722 0.48482,-0.768593 0.49063,-2.171778 1.47308,-2.638629 0.13496,-0.62524 0.71232,0.09008 0.84504,0.310548 0.522059,0.864374 0.614039,2.525292 1.948589,2.726122 0.85491,0.128954 1.64941,-0.796061 2.4444,-0.604023 -0.62461,1.452549 -0.56896,2.605 -0.22813,4.192446 z m 7.037589,8.870343 c 0.64372,-0.04669 1.04125,1.034655 0.83811,1.476152 -0.15316,0.331772 -0.94871,0.443562 -1.30368,0.466354 -0.6321,0.04088 -1.11454,-0.08342 -1.44977,-0.579719 -0.07812,-0.11494 -0.22932,-0.295519 -0.16534,-0.437339 0.0637,-0.141302 0.30905,-0.221529 0.44583,-0.295036 0.45101,-0.242234 1.09767,-0.591058 1.63485,-0.630412 m 7.74067,4.069253 v 0.05187 c -0.69027,0.472031 -1.4987,0.616434 -2.32806,0.80122 -1.70352,0.37835 -3.448969,0.514465 -5.17979,0.803292 -0.59892,0.09976 -1.90491,0.741692 -2.45784,0.268114 -0.23632,-0.202398 -0.11228,-0.49378 -0.0448,-0.733929 0.21882,-0.773808 0.19145,-1.509305 0.34916,-2.277401 0.66703,4.2e-4 1.37473,0.29295 2.03707,0.182714 0.47026,-0.07808 0.83979,-0.552258 1.338609,-0.465304 1.141912,0.199276 2.005012,1.255653 3.142861,1.410423 0.9667,0.130956 2.28494,-0.480837 3.14279,-0.04088 z"
       id="path849-3" />
  </g>
</svg>
